<svg id="Capa_1" data-name="Capa 1" xmlns="http://www.w3.org/2000/svg" viewBox="0 0 920.88 235.97"><defs><style>.cls-1{font-size:143.93px;}.cls-1,.cls-2,.cls-3{fill:#fff;}.cls-1,.cls-2{font-family:PalatinoLinotype-Roman, Palatino Linotype;}.cls-2{font-size:51.14px;}</style></defs><text class="cls-1" transform="translate(0 157.49)">EL MAESTRO</text><text class="cls-2" transform="translate(265.85 221.06)">SANGUCHERIA</text><polygon class="cls-3" points="375.56 0.01 381.08 11.19 393.42 12.98 384.49 21.69 386.6 33.97 375.56 28.17 364.53 33.97 366.64 21.69 357.71 12.98 370.05 11.19 375.56 0.01"/><polygon class="cls-3" points="417.94 0 423.46 11.18 435.8 12.97 426.87 21.67 428.98 33.96 417.94 28.16 406.91 33.96 409.02 21.67 400.09 12.97 412.43 11.18 417.94 0"/><polygon class="cls-3" points="460.4 0 465.92 11.18 478.25 12.97 469.33 21.67 471.43 33.96 460.4 28.16 449.37 33.96 451.47 21.67 442.55 12.97 454.88 11.18 460.4 0"/><polygon class="cls-3" points="545.31 0 550.83 11.18 563.17 12.97 554.24 21.67 556.35 33.96 545.31 28.16 534.28 33.96 536.39 21.67 527.46 12.97 539.8 11.18 545.31 0"/><polygon class="cls-3" points="502.86 0 508.37 11.18 520.71 12.97 511.78 21.67 513.89 33.96 502.86 28.16 491.82 33.96 493.93 21.67 485 12.97 497.34 11.18 502.86 0"/></svg>