<svg id="Capa_1" data-name="Capa 1" xmlns="http://www.w3.org/2000/svg" viewBox="0 0 1179.8 562.67"><defs><style>.cls-1{font-size:143.93px;}.cls-1,.cls-2,.cls-3{fill:#fff;}.cls-1,.cls-2{font-family:PalatinoLinotype-Roman, Palatino Linotype;}.cls-2{font-size:51.14px;}</style></defs><path d="M518.59,556.22,40.2,334.84c-35-16.22-35.05-66,0-82.25L518.76,31.06a202.78,202.78,0,0,1,170.36,0l478.31,221.38c35,16.22,35,66,0,82.25L688.94,556.2A202.76,202.76,0,0,1,518.59,556.22Z" transform="translate(-13.91 -12.3)"/><text class="cls-1" transform="translate(129.46 320.34)">EL MAESTRO</text><text class="cls-2" transform="translate(395.31 383.91)">SANGUCHERIA</text><polygon class="cls-3" points="505.02 162.87 510.54 174.04 522.88 175.84 513.95 184.54 516.06 196.82 505.02 191.02 493.99 196.82 496.1 184.54 487.17 175.84 499.51 174.04 505.02 162.87"/><polygon class="cls-3" points="547.4 162.85 552.92 174.03 565.26 175.82 556.33 184.52 558.44 196.81 547.4 191.01 536.37 196.81 538.48 184.52 529.55 175.82 541.89 174.03 547.4 162.85"/><polygon class="cls-3" points="589.86 162.85 595.38 174.03 607.72 175.82 598.79 184.52 600.9 196.81 589.86 191.01 578.83 196.81 580.93 184.52 572.01 175.82 584.35 174.03 589.86 162.85"/><polygon class="cls-3" points="674.78 162.85 680.29 174.03 692.63 175.82 683.7 184.52 685.81 196.81 674.78 191.01 663.74 196.81 665.85 184.52 656.92 175.82 669.26 174.03 674.78 162.85"/><polygon class="cls-3" points="632.32 162.85 637.84 174.03 650.17 175.82 641.25 184.52 643.35 196.81 632.32 191.01 621.28 196.81 623.39 184.52 614.47 175.82 626.8 174.03 632.32 162.85"/></svg>